<?xml version="1.0" standalone="no"?>
<!DOCTYPE svg PUBLIC "-//W3C//DTD SVG 20010904//EN"
 "http://www.w3.org/TR/2001/REC-SVG-20010904/DTD/svg10.dtd">
<svg version="1.0" xmlns="http://www.w3.org/2000/svg"
 width="588.000000pt" height="588.000000pt" viewBox="0 0 588.000000 588.000000"
 preserveAspectRatio="xMidYMid meet">
<metadata>
Created by potrace 1.16, written by Peter Selinger 2001-2019
</metadata>
<g transform="translate(0.000000,588.000000) scale(0.100000,-0.100000)"
fill="#000000" stroke="none">
<path d="M2665 5281 c-110 -27 -292 -69 -405 -95 -113 -26 -475 -111 -805
-187 -330 -77 -622 -145 -649 -151 l-49 -10 6 -1642 7 -1641 77 -74 c261 -248
457 -416 683 -584 489 -367 1003 -597 1331 -597 57 0 111 10 223 40 620 170
1150 422 1536 728 164 131 345 322 418 443 l21 35 7 1651 7 1650 -28 7 c-16 4
-137 31 -269 61 -1064 237 -1739 388 -1790 400 -85 20 -97 19 -321 -34z m1823
-867 l232 -246 0 -514 0 -514 -92 50 c-51 28 -146 78 -210 113 l-118 62 -2
270 c-1 149 -3 287 -3 308 -2 35 -12 49 -124 161 l-123 123 -1093 7 -1093 8
-40 -44 c-21 -24 -74 -82 -116 -130 l-77 -86 -6 -126 c-6 -125 -6 -125 18
-135 13 -6 213 -60 444 -121 1019 -270 2031 -549 2238 -616 42 -14 77 -29 77
-34 0 -5 -35 -41 -78 -80 l-79 -71 -18 -99 c-13 -73 -22 -100 -33 -100 -16 0
-180 43 -505 131 -120 33 -294 79 -385 103 -288 76 -954 255 -1027 275 -38 11
-216 59 -395 107 -179 47 -404 107 -500 133 l-175 47 -3 395 -2 394 237 237
238 238 1290 0 1290 0 233 -246z m-3030 -1430 l172 -27 0 -158 0 -157 -50 -32
c-128 -82 -179 -219 -132 -353 26 -72 103 -182 143 -202 110 -57 266 -34 574
86 53 21 76 23 210 23 137 0 157 -2 235 -28 135 -45 240 -105 340 -193 l44
-40 71 52 c119 89 223 153 282 175 175 65 419 39 673 -73 84 -37 104 -42 170
-42 65 0 84 5 143 34 101 51 152 100 167 161 26 106 -18 218 -115 293 -61 47
-60 45 -44 162 l12 80 93 68 93 68 59 -40 c95 -64 184 -139 221 -184 140 -174
146 -432 16 -702 -101 -209 -287 -336 -520 -352 -113 -8 -205 10 -347 66 -166
66 -256 85 -403 85 l-120 1 -65 -37 c-127 -71 -287 -235 -400 -407 l-15 -23
-35 54 c-19 29 -106 126 -193 215 -187 190 -201 199 -342 197 -105 -2 -223
-29 -372 -85 -293 -111 -595 -49 -799 163 -110 114 -180 256 -205 418 -27 179
41 400 176 564 34 42 35 46 35 126 l0 83 28 -6 c15 -3 105 -18 200 -33z"/>
</g>
</svg>
